<svg id="svg" version="1.1" xmlns="http://www.w3.org/2000/svg" xmlns:xlink="http://www.w3.org/1999/xlink" width="400" height="400" viewBox="0, 0, 400,400"><g id="svgg"><path id="path0" d="M314.926 121.485 C 314.875 121.568,313.941 123.762,312.852 126.360 C 310.972 130.844,308.651 136.367,301.625 153.083 C 299.929 157.117,297.061 163.942,295.250 168.250 C 293.440 172.558,290.649 179.196,289.048 183.000 C 287.447 186.804,285.087 192.429,283.802 195.500 C 282.518 198.571,280.725 202.828,279.817 204.961 C 278.909 207.093,278.167 208.912,278.167 209.002 C 278.167 209.108,280.597 209.167,284.923 209.167 L 291.679 209.167 292.022 208.375 C 292.211 207.940,293.812 204.133,295.579 199.917 C 297.346 195.700,300.195 188.912,301.910 184.833 C 303.625 180.754,306.476 173.967,308.246 169.750 C 310.015 165.533,312.977 158.483,314.827 154.083 C 316.677 149.683,319.528 142.896,321.163 139.000 C 322.798 135.104,325.078 129.674,326.231 126.934 C 327.384 124.193,328.371 121.812,328.425 121.642 C 328.533 121.300,315.137 121.144,314.926 121.485 M92.083 123.189 C 89.349 123.383,85.489 124.137,83.250 124.915 C 79.901 126.077,79.516 126.238,76.750 127.617 C 69.138 131.414,63.150 137.228,59.192 144.667 L 58.172 146.583 58.169 141.292 C 58.168 138.381,58.130 136.000,58.085 136.000 C 58.040 136.000,56.409 136.645,54.460 137.433 C 52.511 138.222,49.379 139.489,47.500 140.249 C 45.621 141.008,41.833 142.546,39.083 143.665 C 33.661 145.872,29.158 147.702,25.750 149.084 C 21.738 150.712,13.935 153.875,11.583 154.827 L 9.250 155.771 9.206 161.028 L 9.162 166.284 11.039 167.051 C 12.912 167.815,17.082 169.509,23.792 172.230 C 25.740 173.020,28.927 174.313,30.875 175.103 C 32.823 175.893,36.029 177.195,38.000 177.996 C 46.645 181.511,50.501 183.076,54.167 184.559 L 58.083 186.143 58.128 181.288 L 58.172 176.434 59.184 178.258 C 68.670 195.359,87.554 203.111,107.655 198.154 C 111.750 197.145,119.167 193.710,119.167 192.823 C 119.167 192.683,112.511 179.368,112.187 178.859 C 112.075 178.684,111.862 178.767,111.208 179.236 C 105.740 183.165,95.425 184.276,87.917 181.746 C 78.161 178.459,71.823 168.180,73.422 158.240 C 75.873 143.012,92.225 135.461,108.500 142.042 C 109.188 142.320,110.283 142.897,110.934 143.325 L 112.119 144.102 115.679 136.976 C 117.637 133.057,119.204 129.824,119.161 129.793 C 114.065 126.045,106.873 123.755,98.372 123.174 C 95.557 122.982,94.992 122.983,92.083 123.189 M145.583 123.249 C 126.266 125.263,112.290 141.237,112.263 161.333 C 112.246 174.558,117.304 185.217,127.105 192.611 C 135.556 198.985,147.476 201.235,158.750 198.581 C 169.314 196.095,178.909 187.897,183.424 177.500 L 183.750 176.750 183.793 187.551 L 183.836 198.352 196.460 198.286 C 210.106 198.215,210.566 198.188,214.493 197.244 C 224.897 194.742,233.909 187.635,238.687 178.167 L 239.654 176.250 239.660 187.292 L 239.667 198.333 260.833 198.333 L 282.000 198.333 282.000 191.000 L 282.000 183.667 269.250 183.667 L 256.500 183.667 256.500 176.167 L 256.500 168.667 268.667 168.667 L 280.833 168.667 280.833 161.250 L 280.833 153.833 268.667 153.833 L 256.500 153.833 256.500 146.500 L 256.500 139.167 269.250 139.167 L 282.000 139.167 282.000 131.833 L 282.000 124.500 260.833 124.500 L 239.667 124.500 239.662 135.458 L 239.658 146.417 238.616 144.417 C 233.678 134.945,224.720 127.935,214.435 125.495 C 210.634 124.593,210.990 124.612,196.960 124.545 L 183.836 124.482 183.793 135.282 C 183.757 144.334,183.715 146.002,183.533 145.583 C 177.010 130.582,161.696 121.569,145.583 123.249 M325.373 142.282 L 325.417 148.563 326.333 148.926 C 327.516 149.393,337.365 153.245,344.417 155.998 C 347.442 157.179,351.631 158.815,353.726 159.635 C 355.822 160.454,357.472 161.163,357.393 161.210 C 357.314 161.257,353.988 162.548,350.000 164.078 C 346.012 165.608,342.300 167.037,341.750 167.254 C 340.743 167.652,338.739 168.422,336.583 169.240 C 335.942 169.483,335.154 169.788,334.833 169.916 C 334.512 170.044,332.244 170.916,329.792 171.854 L 325.333 173.558 325.333 179.862 C 325.333 183.330,325.369 186.167,325.413 186.167 C 325.457 186.167,326.750 185.653,328.288 185.024 C 331.241 183.818,335.767 181.978,341.625 179.603 C 343.573 178.813,346.760 177.520,348.708 176.731 C 350.656 175.941,353.825 174.655,355.750 173.874 C 363.138 170.876,366.540 169.497,370.000 168.099 C 371.971 167.302,373.752 166.581,373.958 166.496 L 374.333 166.340 374.332 161.045 L 374.330 155.750 366.540 152.599 C 362.256 150.866,357.100 148.778,355.083 147.959 C 353.067 147.140,349.654 145.757,347.500 144.884 C 339.587 141.679,338.320 141.165,333.417 139.168 C 325.845 136.084,325.636 136.000,325.477 136.000 C 325.393 136.000,325.348 138.709,325.373 142.282 M153.835 139.667 C 167.476 142.447,173.196 162.482,164.236 176.096 C 161.075 180.900,156.748 183.104,150.122 183.287 C 137.484 183.636,129.979 175.005,130.382 160.583 C 130.795 145.798,140.677 136.986,153.835 139.667 M205.280 139.501 C 216.611 140.504,224.201 149.178,224.240 161.167 C 224.282 174.068,216.053 182.933,203.708 183.287 L 200.667 183.374 200.667 161.354 L 200.667 139.333 202.042 139.335 C 202.798 139.336,204.255 139.410,205.280 139.501 M57.088 149.292 C 54.553 155.747,54.341 165.811,56.604 172.226 C 56.732 172.589,56.814 172.909,56.785 172.937 C 56.733 172.989,26.591 161.409,26.282 161.218 C 26.191 161.162,26.822 160.840,27.683 160.502 C 28.545 160.164,31.762 158.905,34.833 157.704 C 46.817 153.017,51.194 151.300,54.000 150.186 C 57.286 148.881,57.244 148.893,57.088 149.292 M69.734 230.208 C 69.793 230.690,69.912 232.021,69.998 233.167 C 70.085 234.313,70.272 236.713,70.415 238.500 C 70.557 240.287,70.747 242.688,70.836 243.833 C 70.926 244.979,71.112 247.304,71.250 249.000 C 71.388 250.696,71.576 253.058,71.667 254.250 C 71.820 256.255,72.186 260.812,72.441 263.875 L 72.548 265.167 77.316 265.163 L 82.083 265.160 83.567 261.372 C 85.242 257.094,89.778 245.598,91.964 240.094 C 93.670 235.796,93.554 235.710,93.733 241.417 C 93.793 243.342,93.914 246.679,94.003 248.833 C 94.091 250.987,94.239 254.887,94.332 257.500 C 94.426 260.112,94.547 262.906,94.602 263.708 L 94.702 265.167 99.418 265.167 L 104.134 265.167 104.305 264.708 C 104.399 264.456,104.808 263.500,105.215 262.583 C 105.622 261.667,106.859 258.854,107.963 256.333 C 109.067 253.813,110.846 249.762,111.917 247.333 C 114.976 240.388,116.189 237.615,116.355 237.185 C 116.440 236.966,116.553 236.831,116.607 236.885 C 116.705 236.983,116.549 237.932,115.328 244.667 C 115.237 245.171,114.789 247.721,114.333 250.333 C 113.878 252.946,113.429 255.496,113.337 256.000 C 113.245 256.504,113.057 257.554,112.919 258.333 C 112.781 259.112,112.480 260.800,112.250 262.083 C 112.020 263.367,111.805 264.585,111.772 264.792 L 111.713 265.167 115.273 265.167 C 117.231 265.167,118.833 265.141,118.833 265.111 C 118.833 265.080,119.171 263.149,119.583 260.819 C 119.996 258.489,120.788 253.996,121.342 250.833 C 121.897 247.671,122.461 244.483,122.595 243.750 C 123.027 241.389,123.162 240.628,123.588 238.167 C 123.818 236.838,124.049 235.544,124.100 235.292 L 124.193 234.833 129.698 234.833 L 135.203 234.833 135.095 235.264 C 135.035 235.501,134.809 236.720,134.591 237.973 C 134.373 239.225,133.996 241.375,133.752 242.750 C 133.508 244.125,133.244 245.625,133.164 246.083 C 133.084 246.542,132.897 247.592,132.748 248.417 C 132.598 249.242,132.411 250.292,132.331 250.750 C 132.251 251.208,132.029 252.483,131.837 253.583 C 131.645 254.683,131.344 256.371,131.167 257.333 C 130.756 259.576,129.833 264.923,129.833 265.065 C 129.833 265.124,131.425 265.153,133.370 265.128 L 136.906 265.083 137.025 264.417 C 137.091 264.050,137.418 262.175,137.751 260.250 C 138.085 258.325,138.540 255.737,138.763 254.500 C 138.986 253.262,139.281 251.612,139.419 250.833 C 139.557 250.054,139.745 249.004,139.837 248.500 C 139.929 247.996,140.377 245.446,140.832 242.833 C 141.287 240.221,141.732 237.708,141.822 237.250 C 141.912 236.792,142.035 236.060,142.095 235.625 L 142.205 234.833 147.365 234.833 L 152.526 234.833 152.428 235.292 C 152.324 235.773,152.082 237.108,151.426 240.833 C 151.207 242.071,150.829 244.208,150.586 245.583 C 150.342 246.958,150.077 248.458,149.997 248.917 C 149.918 249.375,149.731 250.425,149.583 251.250 C 149.234 253.199,148.787 255.735,148.173 259.250 C 147.901 260.808,147.564 262.683,147.423 263.417 C 147.282 264.150,147.167 264.844,147.167 264.958 C 147.167 265.119,147.994 265.167,150.750 265.167 L 154.333 265.167 154.333 264.768 C 154.333 264.548,154.442 263.817,154.574 263.143 C 154.707 262.468,155.086 260.342,155.418 258.417 C 156.002 255.027,156.332 253.198,156.687 251.375 L 156.857 250.500 165.275 250.500 L 173.693 250.500 173.601 250.958 C 173.550 251.210,173.202 253.179,172.826 255.333 C 172.450 257.487,171.965 260.225,171.748 261.417 C 171.531 262.608,171.303 263.940,171.241 264.375 L 171.129 265.167 174.634 265.167 L 178.139 265.167 178.309 264.375 C 178.402 263.940,178.712 262.233,178.998 260.583 C 179.833 255.761,180.663 251.065,181.238 247.917 C 181.371 247.183,181.752 245.008,182.084 243.083 C 182.416 241.158,182.794 239.021,182.924 238.333 C 183.054 237.646,183.350 235.958,183.583 234.583 C 183.815 233.208,184.075 231.746,184.159 231.333 C 184.244 230.921,184.359 230.301,184.415 229.955 L 184.516 229.327 180.977 229.372 L 177.438 229.417 177.325 229.917 C 177.262 230.192,177.085 231.167,176.930 232.083 C 176.774 233.000,176.582 234.088,176.502 234.500 C 176.421 234.912,176.233 235.963,176.083 236.833 C 175.933 237.704,175.745 238.754,175.665 239.167 C 175.584 239.579,175.318 241.023,175.073 242.375 L 174.627 244.833 166.230 244.833 C 161.612 244.833,157.833 244.774,157.833 244.701 C 157.833 244.629,158.136 242.885,158.506 240.826 C 158.877 238.768,159.369 235.996,159.601 234.667 C 159.832 233.338,160.129 231.688,160.261 231.000 C 160.392 230.313,160.500 229.656,160.500 229.541 C 160.500 229.374,155.592 229.341,136.231 229.374 L 111.961 229.417 110.400 233.500 C 109.541 235.746,108.692 237.958,108.512 238.417 C 108.333 238.875,107.928 239.925,107.613 240.750 C 103.313 252.014,100.589 259.000,100.495 259.000 C 100.432 259.000,100.328 256.094,100.264 252.542 C 100.200 248.990,100.078 243.833,99.993 241.083 C 99.908 238.333,99.837 234.677,99.836 232.958 L 99.833 229.833 94.694 229.833 L 89.554 229.833 88.176 233.458 C 87.418 235.452,85.527 240.421,83.973 244.500 C 82.419 248.579,80.579 253.417,79.884 255.250 C 78.458 259.012,78.334 259.238,78.332 258.075 C 78.331 257.621,78.220 254.700,78.085 251.583 C 77.950 248.467,77.761 244.004,77.666 241.667 C 77.571 239.329,77.421 235.879,77.334 234.000 C 77.246 232.121,77.172 230.302,77.170 229.958 L 77.167 229.333 73.397 229.333 L 69.628 229.333 69.734 230.208 " stroke="none" fill="#fbfbfb" fill-rule="evenodd"></path><path id="path1" d="M0.000 200.000 L 0.000 400.000 200.000 400.000 L 400.000 400.000 400.000 200.000 L 400.000 0.000 200.000 0.000 L 0.000 0.000 0.000 200.000 M328.581 121.508 C 328.521 121.695,327.458 124.264,326.217 127.216 C 324.977 130.168,322.465 136.146,320.635 140.500 C 318.805 144.854,315.970 151.604,314.336 155.500 C 312.702 159.396,309.852 166.183,308.002 170.583 C 303.213 181.973,298.514 193.164,295.721 199.833 C 294.397 202.996,292.973 206.390,292.558 207.375 L 291.802 209.167 284.901 209.167 C 281.105 209.167,278.000 209.132,278.000 209.091 C 278.000 209.049,278.723 207.305,279.606 205.216 C 280.490 203.126,282.393 198.604,283.835 195.167 C 285.278 191.729,287.861 185.579,289.576 181.500 C 292.511 174.521,294.677 169.367,301.834 152.333 C 303.471 148.438,306.355 141.575,308.244 137.083 C 310.133 132.592,312.407 127.174,313.298 125.043 L 314.917 121.170 321.803 121.168 C 328.664 121.167,328.689 121.168,328.581 121.508 M102.587 123.489 C 106.497 124.081,111.898 125.639,114.730 126.990 C 116.270 127.726,119.347 129.674,119.287 129.876 C 119.148 130.342,112.225 144.147,112.125 144.156 C 112.057 144.162,111.634 143.903,111.186 143.581 C 107.213 140.727,98.380 138.983,92.917 139.974 C 85.054 141.401,80.316 144.319,76.703 149.957 C 68.736 162.392,75.554 178.843,90.088 182.254 C 97.085 183.896,106.443 182.610,110.750 179.415 C 111.025 179.211,111.453 178.915,111.701 178.758 L 112.152 178.471 115.758 185.682 L 119.364 192.892 118.973 193.201 C 114.050 197.095,104.694 199.661,95.406 199.665 C 90.055 199.667,86.860 199.168,82.083 197.582 C 72.194 194.300,63.982 187.339,58.882 177.917 L 58.341 176.917 58.337 181.542 C 58.334 185.395,58.294 186.167,58.100 186.167 C 57.855 186.167,57.349 185.967,49.250 182.670 C 43.466 180.315,38.342 178.235,34.667 176.751 C 32.151 175.734,29.276 174.566,19.500 170.587 C 16.887 169.523,13.494 168.151,11.958 167.537 L 9.167 166.421 9.167 161.067 L 9.167 155.713 11.458 154.783 C 12.719 154.272,15.438 153.167,17.500 152.328 C 19.563 151.490,22.637 150.240,24.333 149.552 C 33.292 145.916,35.424 145.051,39.167 143.530 C 41.412 142.618,44.825 141.232,46.750 140.450 C 48.675 139.669,51.938 138.341,54.000 137.499 C 56.063 136.658,57.881 135.930,58.042 135.882 C 58.315 135.800,58.334 136.118,58.337 140.939 L 58.340 146.083 59.221 144.417 C 67.244 129.237,84.754 120.787,102.587 123.489 M155.500 123.415 C 167.154 125.355,177.219 132.828,182.680 143.597 L 183.667 145.541 183.667 134.927 L 183.667 124.313 196.625 124.385 C 209.917 124.460,210.074 124.467,213.417 125.141 C 223.972 127.270,233.861 134.810,238.756 144.461 L 239.663 146.250 239.665 135.292 L 239.667 124.333 260.833 124.333 L 282.000 124.333 282.000 131.749 L 282.000 139.165 269.292 139.207 L 256.583 139.250 256.540 146.542 L 256.496 153.833 268.748 153.833 L 281.000 153.833 281.000 161.249 L 281.000 168.665 268.792 168.707 L 256.583 168.750 256.540 176.125 L 256.497 183.500 269.248 183.500 L 282.000 183.500 282.000 191.000 L 282.000 198.500 260.833 198.500 L 239.667 198.500 239.667 187.467 L 239.667 176.434 239.024 177.764 C 234.319 187.492,224.276 195.372,213.881 197.490 C 209.537 198.376,208.942 198.406,195.917 198.412 L 183.750 198.417 183.707 187.861 L 183.664 177.306 182.613 179.361 C 175.162 193.922,160.459 201.557,143.989 199.419 C 135.785 198.354,128.970 195.073,123.370 189.494 C 114.560 180.715,110.577 168.201,112.483 155.283 C 115.022 138.069,129.175 124.448,145.917 123.103 C 147.747 122.956,153.958 123.158,155.500 123.415 M327.941 136.843 C 329.303 137.398,332.517 138.704,335.083 139.743 C 337.650 140.783,340.987 142.137,342.500 142.751 C 347.048 144.599,351.245 146.301,354.417 147.585 C 356.067 148.253,359.254 149.546,361.500 150.458 C 363.746 151.371,367.591 152.930,370.044 153.924 L 374.505 155.730 374.461 161.071 L 374.417 166.413 372.500 167.183 C 371.446 167.606,369.008 168.593,367.083 169.375 C 365.158 170.158,362.383 171.286,360.917 171.881 C 358.598 172.822,352.465 175.311,343.083 179.120 C 341.617 179.715,339.067 180.749,337.417 181.417 C 329.443 184.645,326.532 185.828,325.956 186.073 L 325.329 186.339 325.373 179.884 L 325.417 173.428 331.000 171.286 C 334.071 170.108,337.052 168.960,337.624 168.736 C 338.727 168.304,340.136 167.760,341.916 167.081 C 342.512 166.853,343.506 166.473,344.125 166.235 C 344.744 165.998,345.700 165.633,346.250 165.423 C 346.800 165.213,347.738 164.850,348.333 164.616 C 348.929 164.381,351.159 163.528,353.288 162.720 C 355.417 161.911,357.161 161.212,357.163 161.165 C 357.166 161.094,354.970 160.215,348.417 157.666 C 347.775 157.416,345.188 156.405,342.667 155.417 C 340.146 154.430,337.821 153.523,337.500 153.401 C 337.179 153.280,334.329 152.170,331.167 150.935 L 325.417 148.690 325.373 142.262 C 325.349 138.726,325.360 135.833,325.398 135.833 C 325.435 135.833,326.580 136.288,327.941 136.843 M145.500 139.668 C 134.648 141.732,128.521 153.322,130.917 167.250 C 133.022 179.482,144.068 186.170,155.917 182.384 C 172.432 177.107,172.483 145.919,155.985 140.326 C 153.065 139.336,148.687 139.061,145.500 139.668 M200.667 161.353 L 200.667 183.206 203.958 183.121 C 217.301 182.777,226.280 171.084,223.898 157.154 C 222.032 146.244,213.981 139.500,202.821 139.500 L 200.667 139.500 200.667 161.353 M56.417 149.340 C 56.107 149.479,50.590 151.647,44.500 154.022 C 43.079 154.576,40.604 155.544,39.000 156.174 C 37.396 156.804,34.808 157.817,33.250 158.425 C 27.615 160.626,26.500 161.078,26.501 161.163 C 26.503 161.251,56.542 172.849,56.602 172.785 C 56.620 172.766,56.388 171.813,56.088 170.667 C 54.293 163.827,54.453 157.277,56.577 150.585 C 56.810 149.853,57.000 149.234,57.000 149.210 C 57.000 149.132,56.757 149.186,56.417 149.340 M233.554 216.222 C 244.172 218.048,252.402 222.621,259.552 230.667 L 260.663 231.917 260.665 223.875 L 260.667 215.833 290.250 215.833 L 319.833 215.833 319.833 224.250 L 319.833 232.667 309.834 232.667 L 299.834 232.667 299.792 266.292 L 299.750 299.917 290.208 299.960 L 280.667 300.003 280.667 266.335 L 280.667 232.667 270.920 232.667 L 261.172 232.667 262.403 234.458 C 270.078 245.637,271.423 262.482,265.670 275.374 C 261.059 285.709,251.383 294.368,240.583 297.826 C 234.523 299.766,231.151 300.038,214.083 299.966 L 202.417 299.917 202.375 257.866 L 202.333 215.815 217.125 215.878 C 230.059 215.933,232.122 215.976,233.554 216.222 M77.241 229.375 C 77.276 229.490,77.390 231.833,77.493 234.583 C 77.953 246.843,78.451 258.173,78.533 258.255 C 78.573 258.295,79.039 257.185,79.569 255.789 C 81.249 251.361,85.847 239.283,86.183 238.417 C 86.361 237.958,87.164 235.858,87.967 233.750 L 89.427 229.917 94.630 229.873 C 97.492 229.848,99.836 229.848,99.840 229.873 C 99.843 229.897,99.915 232.954,99.998 236.667 C 100.246 247.644,100.526 258.748,100.557 258.779 C 100.572 258.794,101.478 256.469,102.569 253.612 C 103.661 250.755,104.776 247.854,105.047 247.167 C 105.532 245.937,105.933 244.897,106.753 242.751 C 107.484 240.836,108.019 239.442,108.418 238.417 C 108.632 237.867,109.508 235.579,110.366 233.333 L 111.926 229.250 136.317 229.208 L 160.709 229.166 160.596 229.708 C 160.535 230.006,160.305 231.262,160.086 232.500 C 159.866 233.737,159.493 235.838,159.256 237.167 C 159.019 238.496,158.635 240.666,158.403 241.989 C 158.171 243.312,157.943 244.457,157.897 244.532 C 157.850 244.608,161.581 244.650,166.187 244.627 L 174.562 244.583 174.675 244.083 C 174.738 243.808,174.915 242.833,175.070 241.917 C 175.226 241.000,175.418 239.912,175.498 239.500 C 175.579 239.088,175.767 238.037,175.917 237.167 C 176.067 236.296,176.255 235.246,176.335 234.833 C 176.416 234.421,176.682 232.977,176.927 231.625 L 177.373 229.167 180.960 229.167 L 184.547 229.167 184.447 230.042 C 184.392 230.523,184.160 231.967,183.931 233.250 C 183.036 238.270,183.014 238.396,181.835 245.083 C 181.330 247.954,180.395 253.244,179.935 255.833 C 179.797 256.612,179.533 258.112,179.349 259.167 C 178.747 262.614,178.515 263.906,178.374 264.583 L 178.235 265.250 174.604 265.295 L 170.972 265.340 171.060 264.878 C 171.108 264.624,171.345 263.254,171.586 261.833 C 171.827 260.412,172.168 258.462,172.343 257.500 C 172.881 254.551,173.497 250.928,173.499 250.708 C 173.500 250.466,157.084 250.395,156.935 250.637 C 156.888 250.713,156.777 251.219,156.687 251.762 C 156.597 252.305,156.402 253.425,156.253 254.250 C 155.940 255.976,155.869 256.378,155.181 260.333 C 154.902 261.938,154.589 263.720,154.485 264.295 L 154.297 265.340 150.690 265.295 C 147.202 265.251,147.084 265.239,147.104 264.917 C 147.125 264.562,147.256 263.789,147.920 260.083 C 148.151 258.800,148.562 256.475,148.834 254.917 C 149.106 253.358,149.476 251.258,149.655 250.250 C 149.834 249.242,150.101 247.742,150.248 246.917 C 150.748 244.108,151.327 240.837,151.731 238.541 C 151.953 237.281,152.187 235.969,152.252 235.625 L 152.370 235.000 147.364 235.000 L 142.357 235.000 142.179 235.875 C 142.081 236.356,141.850 237.612,141.665 238.667 C 141.481 239.721,141.103 241.858,140.825 243.417 C 140.547 244.975,140.178 247.075,140.005 248.083 C 139.831 249.092,139.568 250.592,139.419 251.417 C 139.270 252.242,139.082 253.292,139.002 253.750 C 138.922 254.208,138.736 255.258,138.588 256.083 C 138.440 256.908,138.139 258.596,137.920 259.833 C 137.090 264.511,136.988 265.052,136.902 265.191 C 136.794 265.366,129.883 265.383,129.777 265.208 C 129.706 265.091,129.905 263.888,131.173 256.750 C 131.450 255.192,131.861 252.867,132.086 251.583 C 132.310 250.300,132.641 248.425,132.821 247.417 C 133.346 244.474,133.655 242.733,134.080 240.333 C 134.300 239.096,134.595 237.446,134.737 236.667 C 134.878 235.887,134.995 235.194,134.997 235.125 C 134.999 235.056,132.578 235.000,129.618 235.000 L 124.237 235.000 123.936 236.708 C 123.770 237.648,123.418 239.654,123.153 241.167 C 122.724 243.612,122.010 247.656,121.268 251.833 C 121.026 253.199,120.470 256.358,120.169 258.083 C 120.089 258.542,119.791 260.247,119.507 261.874 C 119.223 263.500,118.947 264.944,118.894 265.082 C 118.812 265.295,118.252 265.333,115.210 265.333 L 111.623 265.333 111.716 264.625 C 111.768 264.235,112.046 262.604,112.335 261.000 C 112.623 259.396,113.112 256.658,113.420 254.917 C 113.728 253.175,114.093 251.112,114.232 250.333 C 114.487 248.894,115.067 245.599,115.331 244.083 C 115.411 243.625,115.594 242.594,115.738 241.792 C 116.397 238.122,116.506 237.450,116.451 237.395 C 116.418 237.363,115.894 238.479,115.286 239.877 C 114.677 241.274,113.849 243.167,113.444 244.083 C 113.040 245.000,111.923 247.550,110.962 249.750 C 110.001 251.950,109.042 254.125,108.832 254.583 C 108.622 255.042,108.244 255.904,107.992 256.500 C 107.740 257.096,106.919 258.971,106.167 260.667 C 105.415 262.362,104.646 264.107,104.460 264.544 L 104.120 265.338 99.352 265.294 L 94.583 265.250 94.473 262.917 C 94.413 261.633,94.281 258.408,94.179 255.750 C 94.077 253.092,93.923 249.117,93.836 246.917 C 93.748 244.717,93.629 241.499,93.569 239.767 L 93.462 236.617 92.825 238.184 C 92.474 239.045,91.614 241.213,90.912 243.000 C 90.211 244.787,89.013 247.825,88.250 249.750 C 87.487 251.675,86.213 254.900,85.418 256.917 C 84.623 258.933,83.551 261.653,83.035 262.961 L 82.098 265.338 77.257 265.294 L 72.417 265.250 72.306 263.583 C 72.245 262.667,72.078 260.529,71.936 258.833 C 71.793 257.137,71.599 254.737,71.506 253.500 C 71.412 252.262,71.222 249.862,71.083 248.167 C 70.945 246.471,70.759 244.146,70.670 243.000 C 70.580 241.854,70.393 239.492,70.254 237.750 C 70.114 236.008,69.922 233.496,69.826 232.167 C 69.731 230.838,69.623 229.664,69.588 229.558 C 69.552 229.452,69.568 229.321,69.623 229.266 C 69.836 229.053,77.174 229.158,77.241 229.375 M221.667 257.894 L 221.667 282.833 223.292 282.833 C 238.387 282.832,248.364 272.895,248.393 257.833 C 248.421 243.330,239.124 233.427,225.125 233.049 L 221.667 232.955 221.667 257.894 " stroke="none" fill="#040404" fill-rule="evenodd"></path><path id="path2" d="M202.500 257.830 L 202.500 299.850 217.208 299.790 C 233.266 299.724,233.070 299.735,237.500 298.666 C 252.719 294.992,265.058 282.484,268.161 267.583 C 270.745 255.174,268.408 242.789,261.727 233.491 L 261.135 232.667 270.901 232.667 L 280.667 232.667 280.667 266.250 L 280.667 299.833 290.250 299.833 L 299.833 299.833 299.833 266.250 L 299.833 232.667 309.750 232.667 L 319.667 232.667 319.667 224.250 L 319.667 215.833 290.167 215.833 L 260.667 215.833 260.661 223.958 L 260.655 232.083 260.135 231.417 C 254.875 224.686,245.018 218.587,236.583 216.845 C 232.151 215.930,232.775 215.961,217.125 215.883 L 202.500 215.811 202.500 257.830 M226.833 233.004 C 240.066 234.173,248.995 244.841,248.451 258.833 C 247.887 273.358,237.593 283.214,223.417 282.803 L 221.583 282.750 221.541 258.000 C 221.517 244.387,221.533 233.156,221.577 233.042 C 221.676 232.781,224.110 232.763,226.833 233.004 " stroke="none" fill="#135beb" fill-rule="evenodd"></path><path id="path3" d="M314.942 121.292 C 314.900 121.360,317.971 121.417,321.766 121.417 C 325.561 121.417,328.667 121.360,328.667 121.292 C 328.667 121.223,325.596 121.167,321.843 121.167 C 318.090 121.167,314.985 121.223,314.942 121.292 M93.208 123.115 C 93.369 123.157,93.631 123.157,93.792 123.115 C 93.952 123.073,93.821 123.039,93.500 123.039 C 93.179 123.039,93.048 123.073,93.208 123.115 M189.625 124.458 C 192.856 124.484,198.144 124.484,201.375 124.458 C 204.606 124.433,201.963 124.412,195.500 124.412 C 189.037 124.412,186.394 124.433,189.625 124.458 M250.208 124.458 C 256.052 124.483,265.615 124.483,271.458 124.458 C 277.302 124.434,272.521 124.414,260.833 124.414 C 249.146 124.414,244.365 124.434,250.208 124.458 M175.167 133.583 C 175.665 134.087,176.109 134.500,176.155 134.500 C 176.201 134.500,175.831 134.087,175.333 133.583 C 174.835 133.079,174.391 132.667,174.345 132.667 C 174.299 132.667,174.669 133.079,175.167 133.583 M66.906 134.375 L 66.417 134.917 66.958 134.427 C 67.463 133.971,67.577 133.833,67.448 133.833 C 67.419 133.833,67.175 134.077,66.906 134.375 M231.500 134.885 C 231.500 134.914,231.744 135.158,232.042 135.427 L 232.583 135.917 232.094 135.375 C 231.638 134.870,231.500 134.757,231.500 134.885 M64.906 136.375 L 64.417 136.917 64.958 136.427 C 65.463 135.971,65.577 135.833,65.448 135.833 C 65.419 135.833,65.175 136.077,64.906 136.375 M148.713 139.289 C 149.152 139.324,149.827 139.323,150.213 139.288 C 150.600 139.254,150.242 139.225,149.417 139.226 C 148.592 139.226,148.275 139.255,148.713 139.289 M201.548 139.457 C 202.078 139.490,202.903 139.490,203.381 139.456 C 203.859 139.422,203.425 139.395,202.417 139.396 C 201.408 139.396,201.017 139.424,201.548 139.457 M161.000 143.052 C 161.000 143.081,161.244 143.325,161.542 143.594 L 162.083 144.083 161.594 143.542 C 161.138 143.037,161.000 142.923,161.000 143.052 M136.667 144.083 C 136.262 144.496,135.968 144.833,136.014 144.833 C 136.060 144.833,136.428 144.496,136.833 144.083 C 137.238 143.671,137.532 143.333,137.486 143.333 C 137.440 143.333,137.072 143.671,136.667 144.083 M374.333 161.117 C 374.287 164.069,374.307 166.426,374.377 166.356 C 374.447 166.286,374.485 163.871,374.461 160.989 L 374.416 155.750 374.333 161.117 M112.209 158.083 C 112.211 158.450,112.245 158.580,112.285 158.373 C 112.324 158.166,112.323 157.866,112.281 157.706 C 112.239 157.547,112.207 157.717,112.209 158.083 M224.214 159.750 C 224.216 160.208,224.248 160.376,224.286 160.123 C 224.325 159.869,224.324 159.494,224.284 159.289 C 224.244 159.084,224.213 159.292,224.214 159.750 M73.209 159.917 C 73.211 160.283,73.245 160.414,73.285 160.206 C 73.324 159.999,73.323 159.699,73.281 159.540 C 73.239 159.380,73.207 159.550,73.209 159.917 M168.398 161.417 C 168.398 162.608,168.425 163.074,168.457 162.451 C 168.489 161.829,168.489 160.854,168.457 160.285 C 168.424 159.716,168.398 160.225,168.398 161.417 M54.889 161.333 C 54.889 162.021,54.919 162.302,54.955 161.958 C 54.991 161.615,54.991 161.052,54.955 160.708 C 54.919 160.365,54.889 160.646,54.889 161.333 M73.212 162.833 C 73.212 163.246,73.245 163.415,73.284 163.208 C 73.324 163.002,73.324 162.665,73.284 162.458 C 73.245 162.252,73.212 162.421,73.212 162.833 M224.214 162.917 C 224.216 163.375,224.248 163.543,224.286 163.289 C 224.325 163.036,224.324 162.661,224.284 162.456 C 224.244 162.251,224.213 162.458,224.214 162.917 M112.212 164.667 C 112.212 165.079,112.245 165.248,112.284 165.042 C 112.324 164.835,112.324 164.498,112.284 164.292 C 112.245 164.085,112.212 164.254,112.212 164.667 M204.960 183.285 C 205.168 183.324,205.468 183.323,205.627 183.281 C 205.786 183.239,205.617 183.207,205.250 183.209 C 204.883 183.211,204.753 183.245,204.960 183.285 M262.887 183.625 C 266.446 183.650,272.221 183.650,275.721 183.625 C 279.220 183.600,276.308 183.579,269.250 183.579 C 262.192 183.579,259.328 183.600,262.887 183.625 M66.083 187.667 C 66.812 188.400,67.446 189.000,67.492 189.000 C 67.538 189.000,66.979 188.400,66.250 187.667 C 65.521 186.933,64.887 186.333,64.841 186.333 C 64.795 186.333,65.354 186.933,66.083 187.667 M92.377 199.620 C 92.631 199.658,93.006 199.657,93.211 199.617 C 93.416 199.578,93.208 199.546,92.750 199.548 C 92.292 199.549,92.124 199.581,92.377 199.620 M97.960 199.618 C 98.168 199.658,98.468 199.656,98.627 199.615 C 98.786 199.573,98.617 199.540,98.250 199.542 C 97.883 199.544,97.753 199.578,97.960 199.618 M146.208 199.615 C 146.369 199.657,146.631 199.657,146.792 199.615 C 146.952 199.573,146.821 199.539,146.500 199.539 C 146.179 199.539,146.048 199.573,146.208 199.615 M152.042 199.615 C 152.202 199.657,152.465 199.657,152.625 199.615 C 152.785 199.573,152.654 199.539,152.333 199.539 C 152.012 199.539,151.881 199.573,152.042 199.615 M118.458 229.287 C 118.756 229.324,119.244 229.324,119.542 229.287 C 119.840 229.250,119.596 229.220,119.000 229.220 C 118.404 229.220,118.160 229.250,118.458 229.287 M124.211 229.286 C 124.464 229.325,124.839 229.324,125.044 229.284 C 125.249 229.244,125.042 229.213,124.583 229.214 C 124.125 229.216,123.957 229.248,124.211 229.286 M153.788 229.287 C 154.084 229.324,154.609 229.324,154.955 229.288 C 155.300 229.252,155.058 229.222,154.417 229.221 C 153.775 229.221,153.492 229.250,153.788 229.287 M77.217 231.000 C 77.217 231.504,77.248 231.710,77.286 231.458 C 77.324 231.206,77.324 230.794,77.286 230.542 C 77.248 230.290,77.217 230.496,77.217 231.000 M77.379 235.333 C 77.379 235.746,77.411 235.915,77.451 235.708 C 77.491 235.502,77.491 235.165,77.451 234.958 C 77.411 234.752,77.379 234.921,77.379 235.333 M99.893 236.500 C 99.893 237.371,99.922 237.727,99.956 237.292 C 99.990 236.856,99.990 236.144,99.956 235.708 C 99.922 235.273,99.893 235.629,99.893 236.500 M93.542 238.250 C 93.544 238.617,93.578 238.747,93.618 238.540 C 93.658 238.332,93.656 238.032,93.615 237.873 C 93.573 237.714,93.540 237.883,93.542 238.250 M77.539 238.833 C 77.539 239.154,77.573 239.285,77.615 239.125 C 77.657 238.965,77.657 238.702,77.615 238.542 C 77.573 238.381,77.539 238.512,77.539 238.833 M93.718 242.583 C 93.719 243.133,93.750 243.338,93.787 243.039 C 93.825 242.739,93.824 242.289,93.786 242.039 C 93.748 241.788,93.717 242.033,93.718 242.583 M77.717 243.167 C 77.717 243.671,77.748 243.877,77.786 243.625 C 77.824 243.373,77.824 242.960,77.786 242.708 C 77.748 242.456,77.717 242.662,77.717 243.167 M100.050 243.167 C 100.050 243.671,100.081 243.877,100.119 243.625 C 100.158 243.373,100.158 242.960,100.119 242.708 C 100.081 242.456,100.050 242.662,100.050 243.167 M162.053 244.792 C 164.420 244.818,168.245 244.818,170.553 244.792 C 172.861 244.765,170.925 244.744,166.250 244.744 C 161.575 244.744,159.686 244.765,162.053 244.792 M77.872 247.000 C 77.872 247.321,77.906 247.452,77.948 247.292 C 77.990 247.131,77.990 246.869,77.948 246.708 C 77.906 246.548,77.872 246.679,77.872 247.000 M93.872 247.333 C 93.872 247.654,93.906 247.785,93.948 247.625 C 93.990 247.465,93.990 247.202,93.948 247.042 C 93.906 246.881,93.872 247.012,93.872 247.333 M100.228 250.417 C 100.228 251.333,100.256 251.687,100.290 251.203 C 100.324 250.718,100.323 249.968,100.289 249.536 C 100.255 249.104,100.227 249.500,100.228 250.417 M78.050 250.833 C 78.050 251.338,78.081 251.544,78.119 251.292 C 78.158 251.040,78.158 250.627,78.119 250.375 C 78.081 250.123,78.050 250.329,78.050 250.833 M94.048 251.250 C 94.049 251.708,94.081 251.876,94.120 251.623 C 94.158 251.369,94.157 250.994,94.117 250.789 C 94.078 250.584,94.046 250.792,94.048 251.250 M78.209 255.083 C 78.211 255.450,78.245 255.580,78.285 255.373 C 78.324 255.166,78.323 254.866,78.281 254.706 C 78.239 254.547,78.207 254.717,78.209 255.083 M94.212 256.167 C 94.212 256.579,94.245 256.748,94.284 256.542 C 94.324 256.335,94.324 255.998,94.284 255.792 C 94.245 255.585,94.212 255.754,94.212 256.167 M100.388 257.917 C 100.389 258.558,100.419 258.800,100.455 258.455 C 100.491 258.109,100.490 257.584,100.454 257.288 C 100.417 256.992,100.387 257.275,100.388 257.917 M94.375 260.250 C 94.377 260.617,94.411 260.747,94.451 260.540 C 94.491 260.332,94.490 260.032,94.448 259.873 C 94.406 259.714,94.374 259.883,94.375 260.250 M94.548 264.417 C 94.549 264.875,94.581 265.043,94.620 264.789 C 94.658 264.536,94.657 264.161,94.617 263.956 C 94.578 263.751,94.546 263.958,94.548 264.417 " stroke="none" fill="#848484" fill-rule="evenodd"></path><path id="path4" d="M183.627 135.016 C 183.603 140.891,183.640 145.733,183.708 145.776 C 183.777 145.818,183.833 141.011,183.833 135.093 C 183.833 129.175,183.797 124.333,183.752 124.333 C 183.708 124.333,183.652 129.141,183.627 135.016 M123.000 134.083 C 122.595 134.496,122.301 134.833,122.347 134.833 C 122.393 134.833,122.762 134.496,123.167 134.083 C 123.572 133.671,123.865 133.333,123.819 133.333 C 123.774 133.333,123.405 133.671,123.000 134.083 M176.167 134.552 C 176.167 134.581,176.410 134.825,176.708 135.094 L 177.250 135.583 176.760 135.042 C 176.304 134.537,176.167 134.423,176.167 134.552 M58.167 141.083 C 58.167 144.001,58.208 146.347,58.259 146.296 C 58.371 146.184,58.358 135.969,58.245 135.857 C 58.202 135.813,58.167 138.165,58.167 141.083 M94.708 139.782 C 94.869 139.823,95.131 139.823,95.292 139.782 C 95.452 139.740,95.321 139.705,95.000 139.705 C 94.679 139.705,94.548 139.740,94.708 139.782 M217.500 144.917 C 217.811 145.237,218.103 145.500,218.149 145.500 C 218.195 145.500,217.978 145.237,217.667 144.917 C 217.356 144.596,217.064 144.333,217.018 144.333 C 216.972 144.333,217.189 144.596,217.500 144.917 M280.910 161.250 C 280.910 165.375,280.932 167.039,280.958 164.947 C 280.985 162.855,280.985 159.480,280.958 157.447 C 280.932 155.414,280.910 157.125,280.910 161.250 M73.217 161.333 C 73.217 161.837,73.248 162.044,73.286 161.792 C 73.324 161.540,73.324 161.127,73.286 160.875 C 73.248 160.623,73.217 160.829,73.217 161.333 M112.050 161.333 C 112.050 161.837,112.081 162.044,112.119 161.792 C 112.158 161.540,112.158 161.127,112.119 160.875 C 112.081 160.623,112.050 160.829,112.050 161.333 M224.217 161.333 C 224.217 161.837,224.248 162.044,224.286 161.792 C 224.324 161.540,224.324 161.127,224.286 160.875 C 224.248 160.623,224.217 160.829,224.217 161.333 M54.872 163.000 C 54.872 163.321,54.906 163.452,54.948 163.292 C 54.990 163.131,54.990 162.869,54.948 162.708 C 54.906 162.548,54.872 162.679,54.872 163.000 M58.167 181.417 C 58.167 184.060,58.202 186.187,58.245 186.144 C 58.358 186.031,58.372 176.817,58.260 176.705 C 58.209 176.653,58.167 178.774,58.167 181.417 M183.667 177.055 C 183.621 177.101,183.621 181.926,183.667 187.778 L 183.750 198.417 194.917 198.418 L 206.083 198.420 194.960 198.376 L 183.836 198.331 183.793 187.652 C 183.769 181.778,183.713 177.010,183.667 177.055 M96.464 183.123 C 96.948 183.157,97.698 183.156,98.131 183.122 C 98.563 183.088,98.167 183.060,97.250 183.061 C 96.333 183.061,95.980 183.089,96.464 183.123 M201.625 183.290 C 202.198 183.323,203.135 183.323,203.708 183.290 C 204.281 183.258,203.813 183.231,202.667 183.231 C 201.521 183.231,201.052 183.258,201.625 183.290 M250.208 198.458 C 256.052 198.483,265.615 198.483,271.458 198.458 C 277.302 198.434,272.521 198.414,260.833 198.414 C 249.146 198.414,244.365 198.434,250.208 198.458 M202.416 257.833 L 202.417 299.917 215.000 299.918 L 227.583 299.920 215.042 299.876 L 202.501 299.831 202.458 257.791 L 202.416 215.750 202.416 257.833 M319.744 224.250 C 319.744 228.925,319.765 230.861,319.792 228.553 C 319.818 226.245,319.818 222.420,319.792 220.053 C 319.765 217.686,319.744 219.575,319.744 224.250 M256.500 227.552 C 256.500 227.581,256.744 227.825,257.042 228.094 L 257.583 228.583 257.094 228.042 C 256.638 227.537,256.500 227.423,256.500 227.552 M69.611 229.289 C 69.567 229.359,71.244 229.395,73.337 229.369 L 77.143 229.321 77.221 229.786 C 77.296 230.238,77.298 230.237,77.274 229.750 L 77.250 229.250 73.470 229.205 C 71.391 229.181,69.654 229.218,69.611 229.289 M113.458 229.291 C 114.306 229.321,115.694 229.321,116.542 229.291 C 117.390 229.261,116.696 229.236,115.000 229.236 C 113.304 229.236,112.610 229.261,113.458 229.291 M120.965 229.290 C 121.541 229.323,122.441 229.323,122.965 229.290 C 123.488 229.257,123.017 229.230,121.917 229.230 C 120.817 229.231,120.388 229.258,120.965 229.290 M132.292 229.292 C 136.165 229.317,142.502 229.317,146.375 229.292 C 150.248 229.267,147.079 229.246,139.333 229.246 C 131.587 229.246,128.419 229.267,132.292 229.292 M156.800 229.291 C 157.560 229.322,158.760 229.322,159.466 229.290 C 160.172 229.259,159.550 229.234,158.083 229.234 C 156.617 229.234,156.039 229.260,156.800 229.291 M179.032 229.291 C 180.013 229.320,181.663 229.320,182.699 229.291 C 183.735 229.262,182.933 229.238,180.917 229.238 C 178.900 229.238,178.052 229.262,179.032 229.291 M99.892 233.583 C 99.892 234.408,99.920 234.767,99.955 234.380 C 99.990 233.993,99.990 233.318,99.956 232.880 C 99.922 232.442,99.893 232.758,99.892 233.583 M221.577 233.042 C 221.533 233.156,221.517 244.387,221.541 258.000 L 221.584 282.750 221.626 257.880 L 221.667 233.010 223.708 232.958 L 225.750 232.905 223.703 232.869 C 222.192 232.843,221.635 232.888,221.577 233.042 M77.381 233.917 C 77.382 234.375,77.415 234.543,77.453 234.289 C 77.491 234.036,77.490 233.661,77.451 233.456 C 77.411 233.251,77.380 233.458,77.381 233.917 M126.958 234.958 C 128.448 234.986,130.885 234.986,132.375 234.958 C 133.865 234.930,132.646 234.908,129.667 234.908 C 126.688 234.908,125.469 234.930,126.958 234.958 M142.224 235.091 C 142.170 235.232,142.172 235.394,142.229 235.452 C 142.287 235.509,142.333 235.432,142.333 235.280 C 142.333 235.031,142.817 235.000,147.375 234.958 L 152.417 234.912 147.370 234.872 C 142.951 234.838,142.311 234.865,142.224 235.091 M77.714 241.583 C 77.716 242.042,77.748 242.209,77.786 241.956 C 77.825 241.703,77.824 241.328,77.784 241.123 C 77.744 240.918,77.713 241.125,77.714 241.583 M100.045 241.667 C 100.045 242.079,100.078 242.248,100.118 242.042 C 100.157 241.835,100.157 241.498,100.118 241.292 C 100.078 241.085,100.045 241.254,100.045 241.667 M93.714 244.250 C 93.716 244.708,93.748 244.876,93.786 244.623 C 93.825 244.369,93.824 243.994,93.784 243.789 C 93.744 243.584,93.713 243.792,93.714 244.250 M100.220 247.833 C 100.220 248.429,100.250 248.673,100.287 248.375 C 100.324 248.077,100.324 247.590,100.287 247.292 C 100.250 246.994,100.220 247.237,100.220 247.833 M78.039 249.500 C 78.039 249.821,78.073 249.952,78.115 249.792 C 78.157 249.631,78.157 249.369,78.115 249.208 C 78.073 249.048,78.039 249.179,78.039 249.500 M94.052 252.917 C 94.053 253.467,94.084 253.672,94.121 253.372 C 94.158 253.072,94.157 252.622,94.119 252.372 C 94.081 252.122,94.051 252.367,94.052 252.917 M78.214 253.750 C 78.216 254.208,78.248 254.376,78.286 254.123 C 78.325 253.869,78.324 253.494,78.284 253.289 C 78.244 253.084,78.213 253.292,78.214 253.750 M100.389 255.667 C 100.389 256.354,100.419 256.635,100.455 256.292 C 100.491 255.948,100.491 255.385,100.455 255.042 C 100.419 254.698,100.389 254.979,100.389 255.667 M94.209 257.417 C 94.211 257.783,94.245 257.914,94.285 257.706 C 94.324 257.499,94.323 257.199,94.281 257.040 C 94.239 256.880,94.207 257.050,94.209 257.417 M72.401 264.833 L 72.417 265.250 77.292 265.254 L 82.167 265.258 77.344 265.210 L 72.522 265.162 72.453 264.789 C 72.394 264.470,72.387 264.476,72.401 264.833 M129.709 265.000 C 129.767 265.212,130.319 265.251,133.347 265.255 L 136.917 265.261 133.424 265.210 C 130.901 265.174,129.892 265.103,129.787 264.955 C 129.681 264.806,129.660 264.819,129.709 265.000 M97.052 265.291 C 98.410 265.319,100.585 265.319,101.885 265.291 C 103.186 265.263,102.075 265.240,99.417 265.240 C 96.758 265.240,95.694 265.263,97.052 265.291 M113.366 265.291 C 114.346 265.320,115.996 265.320,117.032 265.291 C 118.069 265.262,117.267 265.238,115.250 265.238 C 113.233 265.238,112.385 265.262,113.366 265.291 M148.866 265.291 C 149.846 265.320,151.496 265.320,152.532 265.291 C 153.569 265.262,152.767 265.238,150.750 265.238 C 148.733 265.238,147.885 265.262,148.866 265.291 M172.699 265.291 C 173.679 265.320,175.329 265.320,176.366 265.291 C 177.402 265.262,176.600 265.238,174.583 265.238 C 172.567 265.238,171.719 265.262,172.699 265.291 M285.375 299.958 C 288.010 299.984,292.323 299.984,294.958 299.958 C 297.594 299.932,295.438 299.911,290.167 299.911 C 284.896 299.911,282.740 299.932,285.375 299.958 " stroke="none" fill="#5d5d5d" fill-rule="evenodd"></path></g></svg>